<?xml version="1.0" encoding="UTF-8" standalone="no"?>
<!-- Created with Inkscape (http://www.inkscape.org/) -->

<svg
   width="67.653923mm"
   height="74.809196mm"
   viewBox="0 0 67.653922 74.809195"
   version="1.1"
   id="svg1"
   xml:space="preserve"
   xmlns="http://www.w3.org/2000/svg"
   xmlns:svg="http://www.w3.org/2000/svg"><defs
     id="defs1"><filter
       style="color-interpolation-filters:sRGB"
       id="filter1"
       x="0"
       y="0"
       width="1"
       height="1"><feColorMatrix
         values="-1 0 0 0 1 0 -1 0 0 1 0 0 -1 0 1 0.21 0.72 0.07 1 0 "
         result="color2"
         id="feColorMatrix1" /></filter></defs><g
     id="layer1"
     transform="translate(-67.396656,-55.998089)"><path
       style="fill:#000000;filter:url(#filter1)"
       d="m 98.792277,130.37056 c -2.06975,-0.70537 -7.18072,-3.53916 -21.29896,-11.80925 -3.41974,-2.0032 -6.61164,-4.01493 -7.0931,-4.47052 -0.48147,-0.45558 -1.25538,-1.59908 -1.7198,-2.5411 l -0.84439,-1.71277 -0.13229,-8.20911 c -0.0728,-4.515005 -0.0697,-11.90004 0.007,-16.411186 l 0.13902,-8.202084 0.68228,-1.455208 c 1.14801,-2.448576 2.78726,-3.690038 11.07822,-8.389971 13.93001,-7.896566 19.06065,-10.629204 20.307956,-10.81625 1.848007,-0.277126 4.071007,0.0316 5.505447,0.764578 2.8423,1.452369 27.27959,16.050488 27.94288,16.69225 0.38904,0.376414 0.98435,1.370499 1.32292,2.209078 l 0.61557,1.52469 v 16.007288 16.007295 l -0.84287,1.77926 c -0.47509,1.00289 -1.35338,2.27283 -2.01285,2.91041 -1.74636,1.68841 -25.73692,15.28148 -28.79036,16.31264 -2.07481,0.70068 -2.27579,0.69283 -4.866403,-0.19004 z m -0.66146,-21.30627 V 95.473415 l -11.73616,-6.78204 c -6.45489,-3.730124 -11.8127,-6.782043 -11.90625,-6.782043 -0.0936,0 -0.16877,2.172891 -0.16715,4.828646 l 0.003,4.828646 6.85555,3.929821 c 7.14917,4.098128 7.82707,4.562175 8.23603,5.637805 0.1366,0.3593 0.24837,4.26199 0.24837,8.67265 v 8.01937 l 4.16719,2.39849 c 2.29195,1.31917 4.19695,2.40567 4.23333,2.41445 0.0364,0.009 0.0661,-6.09994 0.0661,-13.57492 z m 11.266173,11.01119 4.05829,-2.31511 0.0768,-8.57062 0.0768,-8.57062 0.80001,-0.643837 c 0.44,-0.35411 3.83328,-2.392252 7.54062,-4.529198 l 6.74062,-3.885355 0.0721,-4.825704 c 0.0397,-2.654137 -0.0322,-4.825704 -0.1596,-4.825704 -0.12744,0 -5.45817,3.020873 -11.84607,6.713052 l -11.61436,6.713051 -0.0685,13.527575 c -0.0377,7.44016 0.006,13.52757 0.0982,13.52757 0.0917,0 1.993,-1.0418 4.22506,-2.3151 z m 4.05174,-37.363584 11.65457,-6.738061 -0.72011,-0.43319 c -8.04914,-4.842095 -21.12943,-12.26916 -22.03504,-12.511635 -0.51811,-0.138723 -1.23248,-0.178084 -1.58749,-0.08747 -0.35501,0.09061 -3.443433,1.788747 -6.863173,3.773628 -3.41974,1.98488 -6.69396,3.875846 -7.27604,4.202145 -4.45905,2.499618 -8.59578,4.99798 -8.47519,5.118565 0.34567,0.345675 23.309343,13.530147 23.469883,13.475112 0.0979,-0.03357 5.42258,-3.093161 11.83259,-6.799094 z"
       id="path1" /></g></svg>
